:FULLY-SPECIFIED
:FORCE-ALL-JOINTS-BE-3DOF
:DEGREES
714
root -9.24077 14.2635 -38.4754 489.26 -58.8043 231.43
lfemur -53.0177 20.6994 5.51874
ltibia 62.8523 0 0
lfoot 1.93784 -2.62204 0
ltoes -2.82766 0 0
rfemur 0.212195 -9.74854 14.5181
rtibia 52.6632 0 0
rfoot -26.9537 -29.1187 0
rtoes -18.0775 0 0
lowerback 14.8891 1.59567 7.49146
upperback -0.621821 3.63018 4.84259
thorax -8.92642 1.42255 0.207993
lowerneck -4.45923 5.75212 0.46061
upperneck 3.80262 7.62728 0.593112
head 2.00547 3.81728 0.346356
lclavicle -3.17834e-14 2.05219e-14 0
lhumerus 53.7518 11.9534 104.471
lradius 28.1168 0 0
lwrist -70.41 0 0
lhand -30.5835 39.4521 0
lfingers 7.12502 0 0
lthumb -3.88096 69.386 0
rclavicle -3.17834e-14 2.05219e-14 0
rhumerus -70.6166 24.2389 -94.8478
rradius 118.259 0 0
rwrist -64.295 0 0
rhand -9.85274 -42.6194 0
rfingers 7.12502 0 0
rthumb 15.9652 -70.6039 0
715
root -9.19163 14.2684 -38.4785 488.452 -58.778 232.262
lfemur -52.8837 20.6757 5.56948
ltibia 62.7215 0 0
lfoot 2.04905 -2.46254 0
ltoes -2.85343 0 0
rfemur 0.039661 -9.81262 14.5088
rtibia 52.7573 0 0
rfoot -26.9424 -29.1088 0
rtoes -18.09 0 0
lowerback 14.8976 1.60291 7.46051
upperback -0.626554 3.63455 4.82222
thorax -8.93685 1.42588 0.201739
lowerneck -4.46325 5.77932 0.487746
upperneck 3.80591 7.6644 0.546609
head 2.01255 3.83483 0.329169
lclavicle -3.18692e-14 2.03931e-14 0
lhumerus 53.3306 11.6342 104.171
lradius 28.7467 0 0
lwrist -69.807 0 0
lhand -30.5289 39.5272 0
lfingers 7.12502 0 0
lthumb -3.82818 69.4618 0
rclavicle -3.18692e-14 2.03931e-14 0
rhumerus -70.3986 24.4423 -94.8062
rradius 118.241 0 0
rwrist -63.8942 0 0
rhand -9.51691 -42.3539 0
rfingers 7.12502 0 0
rthumb 16.2825 -70.262 0
716
root -9.14195 14.2734 -38.4817 487.636 -58.7514 233.102
lfemur -52.7481 20.6516 5.62076
ltibia 62.5891 0 0
lfoot 2.1616 -2.30122 0
ltoes -2.8795 0 0
rfemur -0.134813 -9.87739 14.4994
rtibia 52.8526 0 0
rfoot -26.931 -29.0989 0
rtoes -18.1025 0 0
lowerback 14.9063 1.61022 7.42917
upperback -0.631329 3.63896 4.80163
thorax -8.9474 1.42926 0.195444
lowerneck -4.46736 5.80681 0.515139
upperneck 3.80927 7.70192 0.499618
head 2.01973 3.85257 0.31181
lclavicle -3.19567e-14 2.026e-14 0
lhumerus 52.9047 11.3114 103.867
lradius 29.3837 0 0
lwrist -69.1964 0 0
lhand -30.4737 39.603 0
lfingers 7.12502 0 0
lthumb -3.77491 69.5382 0
rclavicle -3.19567e-14 2.026e-14 0
rhumerus -70.1783 24.6481 -94.7643
rradius 118.222 0 0
rwrist -63.4888 0 0
rhand -9.17892 -42.0858 0
rfingers 7.12502 0 0
rthumb 16.6019 -69.9165 0
717
root -9.09174 14.2784 -38.485 486.811 -58.7245 233.952
lfemur -52.6111 20.6272 5.67259
ltibia 62.4552 0 0
lfoot 2.27545 -2.1381 0
ltoes -2.90585 0 0
rfemur -0.311189 -9.94283 14.49
rtibia 52.949 0 0
rfoot -26.9195 -29.0889 0
rtoes -18.1151 0 0
lowerback 14.9151 1.61762 7.39746
upperback -0.636145 3.64342 4.78082
thorax -8.95807 1.43267 0.189108
lowerneck -4.47155 5.83458 0.542783
upperneck 3.81269 7.73984 0.452148
head 2.027 3.8705 0.294281
lclavicle -3.20458e-14 2.01227e-14 0
lhumerus 52.4743 10.9849 103.56
lradius 30.0274 0 0
lwrist -68.5785 0 0
lhand -30.4181 39.6793 0
lfingers 7.12502 0 0
lthumb -3.72118 69.6153 0
rclavicle -3.20458e-14 2.01227e-14 0
rhumerus -69.9557 24.8562 -94.7221
rradius 118.203 0 0
rwrist -63.0789 0 0
rhand -8.83883 -41.815 0
rfingers 7.12502 0 0
rthumb 16.9232 -69.5674 0
718
root -9.041 14.2835 -38.4882 485.978 -58.6975 234.81
lfemur -52.4725 20.6025 5.72495
ltibia 62.3199 0 0
lfoot 2.39057 -1.97324 0
ltoes -2.93249 0 0
rfemur -0.489428 -10.0089 14.4805
rtibia 53.0464 0 0
rfoot -26.9079 -29.0788 0
rtoes -18.1277 0 0
lowerback 14.924 1.6251 7.36537
upperback -0.641002 3.64793 4.7598
thorax -8.96885 1.43612 0.182731
lowerneck -4.47581 5.86264 0.570672
upperneck 3.81617 7.77813 0.40421
head 2.03436 3.88862 0.276586
lclavicle -3.21367e-14 1.99812e-14 0
lhumerus 52.0393 10.6549 103.25
lradius 30.6778 0 0
lwrist -67.9535 0 0
lhand -30.362 39.7563 0
lfingers 7.12502 0 0
lthumb -3.667 69.693 0
rclavicle -3.21367e-14 1.99812e-14 0
rhumerus -69.7309 25.0665 -94.6796
rradius 118.184 0 0
rwrist -62.6646 0 0
rhand -8.49669 -41.5415 0
rfingers 7.12502 0 0
rthumb 17.2465 -69.2148 0
719
root -8.98975 14.2887 -38.4915 485.137 -58.6701 235.676
lfemur -52.3325 20.5774 5.77784
ltibia 62.183 0 0
lfoot 2.50695 -1.80666 0
ltoes -2.95941 0 0
rfemur -0.66949 -10.0757 14.4708
rtibia 53.1448 0 0
rfoot -26.8962 -29.0686 0
rtoes -18.1403 0 0
lowerback 14.933 1.63265 7.33292
upperback -0.645897 3.65248 4.73857
thorax -8.97976 1.4396 0.176314
lowerneck -4.48015 5.89098 0.598801
upperneck 3.81972 7.81681 0.355814
head 2.0418 3.90691 0.258729
lclavicle -3.22291e-14 1.98356e-14 0
lhumerus 51.6 10.3214 102.936
lradius 31.3347 0 0
lwrist -67.3214 0 0
lhand -30.3054 39.8338 0
lfingers 7.12502 0 0
lthumb -3.61238 69.7712 0
rclavicle -3.22291e-14 1.98356e-14 0
rhumerus -69.5039 25.279 -94.6368
rradius 118.165 0 0
rwrist -62.2461 0 0
rhand -8.15255 -41.2655 0
rfingers 7.12502 0 0
rthumb 17.5715 -68.8588 0
